<svg xmlns="http://www.w3.org/2000/svg" version="1.1" xmlns:xlink="http://www.w3.org/1999/xlink" xmlns:svgjs="http://svgjs.dev/svgjs" width="1000" height="121" viewBox="0 0 1000 121"><g transform="matrix(1,0,0,1,-0.6060584821999555,0.19770256527585417)"><svg viewBox="0 0 396 48" data-background-color="#ffffff" preserveAspectRatio="xMidYMid meet" height="121" width="1000" xmlns="http://www.w3.org/2000/svg" xmlns:xlink="http://www.w3.org/1999/xlink"><g id="tight-bounds" transform="matrix(1,0,0,1,0.23999929036506273,-0.07842536143527923)"><svg viewBox="0 0 395.52 48.15685072287058" height="48.15685072287058" width="395.52"><g><svg viewBox="0 0 395.52 48.15685072287058" height="48.15685072287058" width="395.52"><g><svg viewBox="0 0 395.52 48.15685072287058" height="48.15685072287058" width="395.52"><g id="textblocktransform"><svg viewBox="0 0 395.52 48.15685072287058" height="48.15685072287058" width="395.52" id="textblock"><g><svg viewBox="0 0 395.52 48.15685072287058" height="48.15685072287058" width="395.52"><g transform="matrix(1,0,0,1,0,0)"><svg width="395.52" viewBox="2.1500000953674316 -34.599998474121094 287.0299987792969 34.94999694824219" height="48.15685072287058" data-palette-color="#454545"><path d="M17.1-34.6L17.1-34.6Q23.05-34.6 27.25-32.15 31.45-29.7 31.45-26.95L31.45-26.95Q31.45-26.2 31.13-25.68 30.8-25.15 30.33-24.93 29.85-24.7 29.3-24.7L29.3-24.7Q28.4-24.7 26.6-25.63 24.8-26.55 22.6-27.48 20.4-28.4 18.55-28.4L18.55-28.4Q15.6-28.4 15.6-26L15.6-26Q15.6-25.25 16.07-24.58 16.55-23.9 17.6-23.18 18.65-22.45 19.65-21.9 20.65-21.35 22.4-20.43 24.15-19.5 25.35-18.8L25.35-18.8Q29.2-16.6 30.75-14.6 32.3-12.6 32.3-10L32.3-10Q32.3 0.35 18.35 0.35L18.35 0.35Q15.6 0.35 13.03-0.2 10.45-0.75 8.53-1.65 6.6-2.55 5.13-3.65 3.65-4.75 2.9-5.9 2.15-7.05 2.15-8.05L2.15-8.05Q2.15-9.15 2.88-9.93 3.6-10.7 5-10.7L5-10.7Q6.05-10.7 10.05-9.38 14.05-8.05 16.5-8.05L16.5-8.05Q18.75-8.05 18.75-9.6L18.75-9.6Q18.75-10.05 18.57-10.43 18.4-10.8 17.98-11.18 17.55-11.55 17.03-11.88 16.5-12.2 15.58-12.7 14.65-13.2 13.73-13.7 12.8-14.2 11.3-15 9.8-15.8 8.4-16.6L8.4-16.6Q6.55-17.65 5.23-19.2 3.9-20.75 3.3-22.28 2.7-23.8 2.7-25.1L2.7-25.1Q2.7-29.3 6.45-31.95 10.2-34.6 17.1-34.6ZM70.85-28.7L70.85-7.5Q70.85-3.45 69.4-1.73 67.95 0 65 0L65 0Q62.1 0 60.75-1.58 59.4-3.15 59.4-7.15L59.4-7.15 59.35-12.8 49.15-12.8 49.15-7.5Q49.15-3.4 47.75-1.7 46.35 0 43.3 0L43.3 0Q40.4 0 39.05-1.58 37.7-3.15 37.7-7.15L37.7-7.15 37.55-28.25Q37.55-31.35 39.12-32.8 40.7-34.25 43.3-34.25L43.3-34.25Q46.3-34.25 47.72-33.15 49.15-32.05 49.15-28.7L49.15-28.7 49.15-20.3 59.3-20.3 59.3-28.25Q59.3-30.35 60.07-31.73 60.85-33.1 62.07-33.68 63.3-34.25 65-34.25L65-34.25Q67.9-34.25 69.37-33.15 70.85-32.05 70.85-28.7L70.85-28.7ZM93.55-7L93.55-7Q95.25-7 96.47-8.5 97.7-10 98.22-12.2 98.75-14.4 98.75-16.9L98.75-16.9Q98.75-19.45 98.2-21.73 97.65-24 96.42-25.6 95.2-27.2 93.55-27.2L93.55-27.2Q91.95-27.2 90.75-25.6 89.55-24 88.95-21.7 88.35-19.4 88.35-16.9L88.35-16.9Q88.35-14.4 88.92-12.2 89.5-10 90.72-8.5 91.95-7 93.55-7ZM102.4-1.68Q98.45 0.3 93.52 0.3 88.6 0.3 84.67-1.68 80.75-3.65 78.4-7.6 76.05-11.55 76.05-16.9L76.05-16.9Q76.05-25 80.92-29.78 85.8-34.55 93.55-34.55 101.3-34.55 106.2-29.78 111.09-25 111.09-16.9L111.09-16.9Q111.09-11.55 108.72-7.6 106.34-3.65 102.4-1.68ZM135.14-22.4L135.14-22.4Q135.14-24.25 134.79-25.33 134.44-26.4 133.57-26.95 132.69-27.5 131.67-27.68 130.64-27.85 128.84-27.85L128.84-27.85 128.84-16.85Q130.24-16.85 131.32-17.1 132.39-17.35 133.29-17.95 134.19-18.55 134.67-19.68 135.14-20.8 135.14-22.4ZM128.84-10.3L128.84-7.5Q128.84-3.45 127.34-1.73 125.84 0 122.74 0L122.74 0Q119.64 0 118.19-1.58 116.74-3.15 116.74-7.15L116.74-7.15 116.74-28.25Q116.74-31.3 118.39-32.77 120.04-34.25 122.74-34.25L122.74-34.25 131.64-34.25Q134.89-34.25 137.64-33.38 140.39-32.5 142.42-30.93 144.44-29.35 145.57-26.98 146.69-24.6 146.69-21.7L146.69-21.7Q146.69-18.15 144.64-15.53 142.59-12.9 139.24-11.6 135.89-10.3 131.69-10.3L131.69-10.3 128.84-10.3ZM175.14-16.45L175.14-16.45Q177.69-16.15 179.79-13.88 181.89-11.6 181.89-8.05L181.89-8.05Q181.89-4.6 181.39-2.93 180.89-1.25 179.69-0.63 178.49 0 176.04 0L176.04 0Q174.09 0 172.81-0.55 171.54-1.1 170.94-2.18 170.34-3.25 170.34-4.95L170.34-4.95Q170.34-7.15 170.16-8.63 169.99-10.1 169.72-10.98 169.44-11.85 168.89-12.3 168.34-12.75 167.81-12.88 167.29-13 166.39-13L166.39-13 163.74-13 163.74-7.45Q163.74-3.45 162.19-1.73 160.64 0 157.64 0L157.64 0Q154.74 0 153.37-1.63 151.99-3.25 151.99-7.1L151.99-7.1 151.99-27.95Q151.99-31.1 153.16-32.68 154.34-34.25 156.99-34.25L156.99-34.25Q158.54-34.25 159.56-34.05 160.59-33.85 161.56-33.33 162.54-32.8 163.01-31.68 163.49-30.55 163.49-28.8L163.49-28.8Q163.49-27.25 163.47-25.33 163.44-23.4 163.44-22.6L163.44-22.6Q163.44-21.95 163.76-21.5 164.09-21.05 164.76-20.78 165.44-20.5 166.44-20.5L166.44-20.5Q168.59-20.5 169.31-22.2 170.04-23.9 170.04-29.15L170.04-29.15Q170.04-31.75 171.44-33 172.84-34.25 175.94-34.25L175.94-34.25Q179.29-34.25 180.44-32.95 181.59-31.65 181.59-28.3L181.59-28.3Q181.59-22.8 179.66-19.78 177.74-16.75 175.14-16.45ZM202.64-26.1L202.64-26.1Q200.49-26.1 199.46-24.85 198.44-23.6 198.44-20.4L198.44-20.4 198.44-14.5 206.74-14.5 206.74-20.5Q206.74-22.6 206.24-23.88 205.74-25.15 204.86-25.63 203.99-26.1 202.64-26.1ZM206.74-4.95L206.74-7.6 198.44-7.6 198.44-4.95Q198.44-2.4 197.09-1.2 195.74 0 192.44 0L192.44 0Q191.04 0 190.14-0.4 189.24-0.8 188.56-1.75 187.89-2.7 187.56-4.53 187.24-6.35 187.06-8.93 186.89-11.5 186.89-15.45L186.89-15.45Q186.89-18.9 187.61-21.78 188.34-24.65 189.56-26.65 190.79-28.65 192.34-30.18 193.89-31.7 195.71-32.55 197.54-33.4 199.26-33.83 200.99-34.25 202.74-34.25L202.74-34.25Q204.84-34.25 206.89-33.68 208.94-33.1 211.04-31.7 213.14-30.3 214.71-28.23 216.29-26.15 217.29-22.85 218.29-19.55 218.29-15.45L218.29-15.45Q218.29-8.85 217.81-5.68 217.34-2.5 216.21-1.25 215.09 0 212.74 0L212.74 0Q209.44 0 208.09-1.2 206.74-2.4 206.74-4.95L206.74-4.95ZM242.54-24.3L242.54-24.3Q242.54-26.7 240.79-27.6 239.03-28.5 234.89-28.5L234.89-28.5 234.89-19.85Q238.78-19.85 240.66-20.83 242.54-21.8 242.54-24.3ZM234.89-12.35L234.89-7.5Q234.89 0 229.03 0L229.03 0Q226.09 0 224.71-1.58 223.34-3.15 223.34-7.15L223.34-7.15 223.34-28.25Q223.34-31.15 224.91-32.68 226.49-34.2 229.03-34.2L229.03-34.2 239.54-34.2Q245.69-34.2 249.49-31.33 253.29-28.45 253.29-23.95L253.29-23.95Q253.29-20.55 251.86-18.63 250.44-16.7 247.29-15.8L247.29-15.8Q249.69-15.65 251.74-13.48 253.79-11.3 253.79-8.05L253.79-8.05Q253.79-4.75 253.16-2.98 252.54-1.2 251.39-0.6 250.24 0 248.14 0L248.14 0Q245.19 0 243.81-1.23 242.44-2.45 242.44-4.95L242.44-4.95Q242.44-8.05 241.84-9.73 241.24-11.4 240.29-11.9 239.34-12.4 237.64-12.4L237.64-12.4 234.89-12.35ZM278.78-25.6L278.78-7.5Q278.78-4.65 278.08-2.98 277.38-1.3 276.16-0.65 274.93 0 272.93 0L272.93 0Q269.98 0 268.66-1.58 267.33-3.15 267.28-7.15L267.28-7.15 267.18-25.6 262.93-25.6Q259.78-25.6 258.21-26.6 256.63-27.6 256.63-30.15L256.63-30.15Q256.63-31.7 257.26-32.6 257.88-33.5 259.13-33.88 260.38-34.25 262.48-34.25L262.48-34.25 283.88-34.25Q286.68-34.25 287.93-33.25 289.18-32.25 289.18-29.8L289.18-29.8Q289.18-28.15 288.46-27.23 287.73-26.3 286.53-25.95 285.33-25.6 283.43-25.6L283.43-25.6 278.78-25.6Z" opacity="1" transform="matrix(1,0,0,1,0,0)" fill="#454545" class="wordmark-text-0" data-fill-palette-color="primary" id="text-0"></path></svg></g></svg></g></svg></g></svg></g></svg></g><defs></defs></svg><rect width="395.52" height="48.15685072287058" fill="none" stroke="none" visibility="hidden"></rect></g></svg></g></svg>